<?xml version="1.0" encoding="UTF-8"?>
<svg xmlns="http://www.w3.org/2000/svg" viewBox="0 0 360 200" width="360" height="200">
	<defs>
		<linearGradient id="bg3" x1="0" y1="0" x2="360" y2="200" gradientUnits="userSpaceOnUse">
			<stop offset="0" stop-color="#e3f2fd"/>
			<stop offset="1" stop-color="#90caf9"/>
		</linearGradient>
		<linearGradient id="hdr3" x1="0" y1="0" x2="1" y2="0" gradientUnits="objectBoundingBox">
			<stop offset="0" stop-color="#005a96"/>
			<stop offset="1" stop-color="#0072bc"/>
		</linearGradient>
		<linearGradient id="cyan3" x1="0" y1="0" x2="1" y2="0">
			<stop offset="0" stop-color="#33badf"/>
			<stop offset="1" stop-color="#0072bc"/>
		</linearGradient>
		<filter id="sh3" x="-8%" y="-8%" width="116%" height="116%">
			<feDropShadow dx="0" dy="4" stdDeviation="6" flood-color="#005a96" flood-opacity="0.2"/>
		</filter>
	</defs>
	<rect x="4" y="4" width="352" height="192" rx="20" fill="url(#bg3)" filter="url(#sh3)" stroke="#42a5f5" stroke-width="2"/>
	<path d="M0 100 Q90 70 180 100 T360 100" fill="none" stroke="#fff" stroke-width="40" opacity="0.2" transform="translate(0 -20)"/>
	<path d="M4 24 Q4 4 24 4 H336 Q356 4 356 24 V56 H4 Z" fill="url(#hdr3)"/>
	<rect x="4" y="48" width="352" height="6" fill="url(#cyan3)"/>
	<text x="180" y="36" text-anchor="middle" fill="#b3e5fc" font-size="11" font-weight="600" font-family="system-ui,sans-serif" letter-spacing="0.25em">MOBILE GIFT</text>
	<text x="180" y="62" text-anchor="middle" fill="#fff" font-size="24" font-weight="800" font-family="Arial Black,system-ui,sans-serif"><tspan fill="#fff">GS</tspan><tspan fill="#7dd3f7">25</tspan></text>
	<text x="180" y="86" text-anchor="middle" fill="#01579b" font-size="13" font-weight="700" font-family="Malgun Gothic,Apple SD Gothic Neo,sans-serif">??? ???</text>
	<line x1="40" y1="100" x2="320" y2="100" stroke="#64b5f6" stroke-width="1" stroke-dasharray="8 5"/>
	<text x="180" y="142" text-anchor="middle" fill="#004c8c" font-size="48" font-weight="800" font-family="Malgun Gothic,Apple SD Gothic Neo,sans-serif">3,000?</text>
	<text x="180" y="166" text-anchor="middle" fill="#0277bd" font-size="12" font-weight="600" font-family="Malgun Gothic,Apple SD Gothic Neo,sans-serif">GS25 ? ?? ?? ??</text>
	<text x="180" y="186" text-anchor="middle" fill="#0288d1" font-size="10" font-family="Malgun Gothic,Apple SD Gothic Neo,sans-serif">??? ??? ? ?? ?? ??</text>
	<rect x="300" y="150" width="40" height="28" rx="4" fill="#0072bc" opacity="0.9"/>
	<text x="320" y="168" text-anchor="middle" fill="#fff" font-size="11" font-weight="800">3K</text>
</svg>
