<?xml version="1.0" encoding="UTF-8"?>
<svg xmlns="http://www.w3.org/2000/svg" viewBox="0 0 360 200" width="360" height="200">
	<defs>
		<linearGradient id="bg2" x1="0" y1="0" x2="360" y2="200" gradientUnits="userSpaceOnUse">
			<stop offset="0" stop-color="#f1f8f4"/>
			<stop offset="1" stop-color="#dcedc8"/>
		</linearGradient>
		<linearGradient id="hdr2" x1="0" y1="0" x2="1" y2="0" gradientUnits="objectBoundingBox">
			<stop offset="0" stop-color="#1b5e20"/>
			<stop offset="1" stop-color="#2e7d32"/>
		</linearGradient>
		<filter id="sh2" x="-8%" y="-8%" width="116%" height="116%">
			<feDropShadow dx="0" dy="4" stdDeviation="6" flood-color="#1b5e20" flood-opacity="0.15"/>
		</filter>
		<pattern id="dot2" width="12" height="12" patternUnits="userSpaceOnUse">
			<circle cx="2" cy="2" r="1" fill="#a5d6a7" opacity="0.35"/>
		</pattern>
	</defs>
	<rect x="4" y="4" width="352" height="192" rx="20" fill="url(#bg2)" filter="url(#sh2)" stroke="#81c784" stroke-width="2"/>
	<rect x="4" y="4" width="352" height="192" rx="20" fill="url(#dot2)" opacity="0.5"/>
	<path d="M4 24 Q4 4 24 4 H336 Q356 4 356 24 V52 H4 Z" fill="url(#hdr2)"/>
	<text x="180" y="36" text-anchor="middle" fill="#fff" font-size="11" font-weight="600" font-family="system-ui,sans-serif" letter-spacing="0.2em">MOBILE GIFT</text>
	<text x="180" y="58" text-anchor="middle" fill="#c8e6c9" font-size="22" font-weight="800" font-family="Arial Black,system-ui,sans-serif">GS25</text>
	<text x="180" y="78" text-anchor="middle" fill="#1b5e20" font-size="13" font-weight="700" font-family="Malgun Gothic,Apple SD Gothic Neo,sans-serif">??? ???</text>
	<line x1="48" y1="92" x2="312" y2="92" stroke="#a5d6a7" stroke-width="1" stroke-dasharray="6 4"/>
	<text x="180" y="132" text-anchor="middle" fill="#1b5e20" font-size="48" font-weight="800" font-family="Malgun Gothic,Apple SD Gothic Neo,sans-serif">2,000?</text>
	<text x="180" y="156" text-anchor="middle" fill="#33691e" font-size="12" font-weight="600" font-family="Malgun Gothic,Apple SD Gothic Neo,sans-serif">GS25 ? ?? ?? ??</text>
	<text x="180" y="176" text-anchor="middle" fill="#558b2f" font-size="10" font-family="Malgun Gothic,Apple SD Gothic Neo,sans-serif">??? ??? ? ?? ?? ??</text>
	<circle cx="328" cy="168" r="14" fill="none" stroke="#66bb6a" stroke-width="2" opacity="0.6"/>
	<text x="328" y="172" text-anchor="middle" fill="#2e7d32" font-size="9" font-weight="700">2K</text>
</svg>
