<?xml version="1.0" encoding="UTF-8"?>
<svg xmlns="http://www.w3.org/2000/svg" viewBox="0 0 360 200" width="360" height="200">
	<defs>
		<linearGradient id="bg5" x1="0" y1="0" x2="360" y2="200" gradientUnits="userSpaceOnUse">
			<stop offset="0" stop-color="#fff8e1"/>
			<stop offset="0.5" stop-color="#ffe082"/>
			<stop offset="1" stop-color="#ffcc80"/>
		</linearGradient>
		<linearGradient id="hdr5" x1="0" y1="0" x2="1" y2="0">
			<stop offset="0" stop-color="#e65100"/>
			<stop offset="1" stop-color="#f57c00"/>
		</linearGradient>
		<filter id="sh5" x="-8%" y="-8%" width="116%" height="116%">
			<feDropShadow dx="0" dy="4" stdDeviation="6" flood-color="#bf360c" flood-opacity="0.2"/>
		</filter>
		<radialGradient id="glow5" cx="50%" cy="30%" r="60%">
			<stop offset="0" stop-color="#fff" stop-opacity="0.5"/>
			<stop offset="1" stop-color="#fff" stop-opacity="0"/>
		</radialGradient>
	</defs>
	<rect x="4" y="4" width="352" height="192" rx="20" fill="url(#bg5)" filter="url(#sh5)" stroke="#ff9800" stroke-width="2"/>
	<ellipse cx="180" cy="95" rx="140" ry="70" fill="url(#glow5)"/>
	<path d="M4 24 Q4 4 24 4 H336 Q356 4 356 24 V56 H4 Z" fill="url(#hdr5)"/>
	<text x="180" y="36" text-anchor="middle" fill="#ffe0b2" font-size="11" font-weight="600" font-family="system-ui,sans-serif" letter-spacing="0.25em">MOBILE GIFT</text>
	<text x="180" y="62" text-anchor="middle" fill="#fff" font-size="24" font-weight="800" font-family="Arial Black,system-ui,sans-serif">GS25</text>
	<text x="180" y="86" text-anchor="middle" fill="#bf360c" font-size="13" font-weight="700" font-family="Malgun Gothic,Apple SD Gothic Neo,sans-serif">??? ???</text>
	<line x1="40" y1="100" x2="320" y2="100" stroke="#ffb74d" stroke-width="2" stroke-dasharray="4 6"/>
	<text x="180" y="142" text-anchor="middle" fill="#e65100" font-size="48" font-weight="800" font-family="Malgun Gothic,Apple SD Gothic Neo,sans-serif">5,000?</text>
	<text x="180" y="166" text-anchor="middle" fill="#d84315" font-size="12" font-weight="600" font-family="Malgun Gothic,Apple SD Gothic Neo,sans-serif">GS25 ? ?? ?? ??</text>
	<text x="180" y="186" text-anchor="middle" fill="#ef6c00" font-size="10" font-family="Malgun Gothic,Apple SD Gothic Neo,sans-serif">??? ??? ? ?? ?? ??</text>
	<polygon points="320,148 340,168 320,188 300,168" fill="#e65100" opacity="0.85"/>
	<text x="320" y="174" text-anchor="middle" fill="#fff" font-size="10" font-weight="800">5K</text>
</svg>
